G75*
%MOIN*%
%OFA0B0*%
%FSLAX24Y24*%
%IPPOS*%
%LPD*%
%AMOC8*
5,1,8,0,0,1.08239X$1,22.5*
%
%ADD10C,0.0000*%
%ADD11R,0.1290X0.0540*%
%ADD12OC8,0.0640*%
D10*
X000180Y000310D02*
X023176Y000310D01*
X023176Y026680D01*
X000180Y026680D01*
X000180Y000310D01*
D11*
X001305Y002680D03*
X001305Y004680D03*
X001305Y006680D03*
X003055Y005680D03*
X003055Y003680D03*
X003055Y001680D03*
X003055Y008680D03*
X003055Y010680D03*
X003055Y012680D03*
X003055Y014680D03*
X001305Y013680D03*
X001305Y011680D03*
X001305Y009680D03*
X001305Y015680D03*
X020305Y015280D03*
X020305Y013280D03*
X020305Y011280D03*
X022055Y010280D03*
X022055Y012280D03*
X022055Y014280D03*
X022055Y016280D03*
X022055Y018280D03*
X020305Y017280D03*
X020305Y019280D03*
X020305Y008680D03*
X020305Y006680D03*
X020305Y004680D03*
X020305Y002680D03*
X022055Y001680D03*
X022055Y003680D03*
X022055Y005680D03*
X022055Y007680D03*
D12*
X018180Y007680D03*
X018180Y006680D03*
X018180Y005680D03*
X018180Y004680D03*
X018180Y003680D03*
X018180Y002680D03*
X018180Y001680D03*
X017180Y001680D03*
X017180Y002680D03*
X017180Y003680D03*
X017180Y004680D03*
X017180Y005680D03*
X017180Y006680D03*
X017180Y007680D03*
X017180Y008680D03*
X018180Y008680D03*
X018180Y010180D03*
X018180Y011180D03*
X018180Y012180D03*
X018180Y013180D03*
X018180Y014180D03*
X018180Y015180D03*
X017180Y015180D03*
X017180Y014180D03*
X017180Y013180D03*
X017180Y012180D03*
X017180Y011180D03*
X017180Y010180D03*
X017180Y020680D03*
X017180Y021680D03*
X017180Y022680D03*
X017180Y023680D03*
X017180Y024680D03*
X017180Y025680D03*
X018180Y025680D03*
X018180Y024680D03*
X018180Y023680D03*
X018180Y022680D03*
X018180Y021680D03*
X018180Y020680D03*
M02*
