G75*
%MOIN*%
%OFA0B0*%
%FSLAX24Y24*%
%IPPOS*%
%LPD*%
%AMOC8*
5,1,8,0,0,1.08239X$1,22.5*
%
%ADD10C,0.0000*%
%ADD11R,0.1250X0.0500*%
%ADD12OC8,0.0600*%
%ADD13C,0.0100*%
%ADD14C,0.0240*%
D10*
X000180Y000310D02*
X023176Y000310D01*
X023176Y026680D01*
X000180Y026680D01*
X000180Y000310D01*
D11*
X001305Y001680D03*
X001305Y003680D03*
X001305Y005680D03*
X003055Y004680D03*
X003055Y006680D03*
X001305Y008680D03*
X001305Y010680D03*
X001305Y012680D03*
X001305Y014680D03*
X003055Y013680D03*
X003055Y011680D03*
X003055Y009680D03*
X003055Y015680D03*
X003055Y002680D03*
X020305Y001680D03*
X020305Y003680D03*
X020305Y005680D03*
X020305Y007680D03*
X022055Y006680D03*
X022055Y004680D03*
X022055Y002680D03*
X022055Y008680D03*
X020305Y010280D03*
X020305Y012280D03*
X020305Y014280D03*
X020305Y016280D03*
X020305Y018280D03*
X022055Y017280D03*
X022055Y019280D03*
X022055Y015280D03*
X022055Y013280D03*
X022055Y011280D03*
D12*
X018180Y011180D03*
X018180Y010180D03*
X017180Y010180D03*
X017180Y011180D03*
X017180Y012180D03*
X017180Y013180D03*
X017180Y014180D03*
X017180Y015180D03*
X018180Y015180D03*
X018180Y014180D03*
X018180Y013180D03*
X018180Y012180D03*
X018180Y008680D03*
X018180Y007680D03*
X018180Y006680D03*
X018180Y005680D03*
X018180Y004680D03*
X018180Y003680D03*
X018180Y002680D03*
X018180Y001680D03*
X017180Y001680D03*
X017180Y002680D03*
X017180Y003680D03*
X017180Y004680D03*
X017180Y005680D03*
X017180Y006680D03*
X017180Y007680D03*
X017180Y008680D03*
X017180Y020680D03*
X017180Y021680D03*
X017180Y022680D03*
X017180Y023680D03*
X017180Y024680D03*
X017180Y025680D03*
X018180Y025680D03*
X018180Y024680D03*
X018180Y023680D03*
X018180Y022680D03*
X018180Y021680D03*
X018180Y020680D03*
D13*
X018180Y019680D01*
X005180Y006680D01*
X005180Y003280D01*
X003880Y001980D01*
X003180Y001680D02*
X001305Y001680D01*
X000880Y000980D02*
X000480Y001380D01*
X000480Y002880D01*
X001280Y003680D01*
X001305Y003680D01*
X001305Y005680D02*
X001380Y005680D01*
X001380Y006080D01*
X003880Y008580D01*
X003880Y012980D01*
X017080Y026180D01*
X017280Y026180D01*
X017680Y025780D01*
X017680Y025580D01*
X017180Y025080D01*
X017180Y024680D01*
X017680Y024780D02*
X018080Y025180D01*
X018280Y025180D01*
X020080Y023380D01*
X020080Y019180D01*
X005580Y004680D01*
X005580Y002880D01*
X003680Y000980D01*
X000880Y000980D01*
X003180Y001680D02*
X004980Y003480D01*
X004980Y011280D01*
X014380Y020680D01*
X017180Y020680D01*
X017680Y020780D02*
X017680Y019580D01*
X005280Y007180D01*
X005480Y006580D02*
X018880Y019980D01*
X018880Y023080D01*
X018580Y023080D02*
X018580Y023180D01*
X018780Y023380D01*
X018980Y023380D01*
X019180Y023180D01*
X019180Y019480D01*
X005480Y005780D01*
X006480Y006380D02*
X019380Y019280D01*
X019380Y023280D01*
X018180Y024480D01*
X018180Y024680D01*
X017680Y024780D02*
X017680Y023580D01*
X017180Y023080D01*
X017180Y022680D01*
X017180Y023680D02*
X016480Y023680D01*
X004280Y011480D01*
X004280Y006780D01*
X003080Y005580D01*
X003080Y004680D01*
X003055Y004680D01*
X003880Y003480D02*
X003080Y002680D01*
X003055Y002680D01*
X003880Y003480D02*
X003880Y006080D01*
X004480Y006680D01*
X004480Y011380D01*
X014780Y021680D01*
X017180Y021680D01*
X017680Y020780D02*
X018180Y021280D01*
X018180Y021680D01*
X018180Y022680D02*
X018580Y023080D01*
X017180Y025380D02*
X004080Y012280D01*
X004080Y007680D01*
X003080Y006680D01*
X003055Y006680D01*
X002180Y008680D02*
X001305Y008680D01*
X000480Y007480D02*
X000780Y007180D01*
X000480Y007480D02*
X000480Y010980D01*
X001580Y012080D01*
X002580Y012080D01*
X016880Y026380D01*
X017480Y026380D01*
X018180Y025680D01*
X017180Y025680D02*
X017180Y025380D01*
X021180Y019280D02*
X022055Y019280D01*
X021180Y018280D02*
X020305Y018280D01*
X021180Y017280D02*
X022055Y017280D01*
X021180Y016280D02*
X020305Y016280D01*
X021580Y015680D02*
X021980Y015280D01*
X022055Y015280D01*
X021580Y015680D02*
X018080Y015680D01*
X017580Y015180D01*
X017180Y015180D01*
X017180Y014180D02*
X017580Y014180D01*
X018080Y014680D01*
X019880Y014680D01*
X020280Y014280D01*
X020305Y014280D01*
X021580Y013680D02*
X021980Y013280D01*
X022055Y013280D01*
X021580Y013680D02*
X018080Y013680D01*
X017580Y013180D01*
X017180Y013180D01*
X017180Y012180D02*
X017580Y012180D01*
X018080Y012680D01*
X019880Y012680D01*
X020280Y012280D01*
X020305Y012280D01*
X021580Y011680D02*
X021980Y011280D01*
X022055Y011280D01*
X021580Y011680D02*
X018080Y011680D01*
X017580Y011180D01*
X017180Y011180D01*
X017180Y010180D02*
X017580Y010180D01*
X018080Y010680D01*
X019880Y010680D01*
X020280Y010280D01*
X020305Y010280D01*
X021480Y009180D02*
X021980Y008680D01*
X022055Y008680D01*
X021480Y009180D02*
X018080Y009180D01*
X017580Y008680D01*
X017180Y008680D01*
X017180Y007680D02*
X017580Y007680D01*
X018080Y008180D01*
X019780Y008180D01*
X020280Y007680D01*
X020305Y007680D01*
X021480Y007180D02*
X021980Y006680D01*
X022055Y006680D01*
X021480Y007180D02*
X018080Y007180D01*
X017580Y006680D01*
X017180Y006680D01*
X017180Y005680D02*
X017580Y005680D01*
X018080Y006180D01*
X019780Y006180D01*
X020280Y005680D01*
X020305Y005680D01*
X021480Y005180D02*
X021980Y004680D01*
X022055Y004680D01*
X021480Y005180D02*
X018080Y005180D01*
X017580Y004680D01*
X017180Y004680D01*
X017180Y003680D02*
X017580Y003680D01*
X018080Y004180D01*
X019780Y004180D01*
X020280Y003680D01*
X020305Y003680D01*
X021480Y003180D02*
X021980Y002680D01*
X022055Y002680D01*
X021480Y003180D02*
X018080Y003180D01*
X017580Y002680D01*
X017180Y002680D01*
X017180Y001680D02*
X017580Y001680D01*
X018080Y002180D01*
X019780Y002180D01*
X020280Y001680D01*
X020305Y001680D01*
X003080Y009680D02*
X003055Y009680D01*
X003080Y009680D02*
X003080Y010180D01*
X002180Y010680D02*
X001305Y010680D01*
X002180Y011680D02*
X003055Y011680D01*
X002180Y012680D02*
X001305Y012680D01*
X002180Y013680D02*
X003055Y013680D01*
X002180Y014680D02*
X001305Y014680D01*
X002180Y015680D02*
X003055Y015680D01*
D14*
X002180Y015680D03*
X002180Y014680D03*
X002180Y013680D03*
X002180Y012680D03*
X002180Y011680D03*
X002180Y010680D03*
X003080Y010180D03*
X002180Y008680D03*
X000780Y007180D03*
X005280Y007180D03*
X005480Y006580D03*
X005480Y005780D03*
X006480Y006380D03*
X003880Y001980D03*
X021180Y016280D03*
X021180Y017280D03*
X021180Y018280D03*
X021180Y019280D03*
X018880Y023080D03*
M02*
