%
M48
M72
T01C0.0120
T02C0.0400
%
T01
X3880Y1980
X5480Y5780
X5480Y6580
X5280Y7180
X6480Y6380
X3080Y10180
X2180Y10680
X2180Y11680
X2180Y12680
X2180Y13680
X2180Y14680
X2180Y15680
X2180Y8680
X780Y7180
X18880Y23080
X21180Y19280
X21180Y18280
X21180Y17280
X21180Y16280
T02
X18180Y1680
X18180Y2680
X18180Y3680
X18180Y4680
X18180Y5680
X18180Y6680
X18180Y7680
X18180Y8680
X17180Y8680
X17180Y7680
X17180Y6680
X17180Y5680
X17180Y4680
X17180Y3680
X17180Y2680
X17180Y1680
X17180Y10180
X17180Y11180
X17180Y12180
X17180Y13180
X17180Y14180
X17180Y15180
X18180Y15180
X18180Y14180
X18180Y13180
X18180Y12180
X18180Y11180
X18180Y10180
X18180Y20680
X18180Y21680
X18180Y22680
X18180Y23680
X18180Y24680
X18180Y25680
X17180Y25680
X17180Y24680
X17180Y23680
X17180Y22680
X17180Y21680
X17180Y20680
M30
