G75*
%MOIN*%
%OFA0B0*%
%FSLAX24Y24*%
%IPPOS*%
%LPD*%
%AMOC8*
5,1,8,0,0,1.08239X$1,22.5*
%
%ADD10C,0.0000*%
%ADD11C,0.0070*%
%ADD12C,0.0100*%
%ADD13C,0.0040*%
D10*
X000180Y000310D02*
X023176Y000310D01*
X023176Y026680D01*
X000180Y026680D01*
X000180Y000310D01*
D11*
X000962Y024215D02*
X001515Y024215D01*
X001791Y024215D02*
X001930Y024215D01*
X001930Y024353D01*
X001791Y024353D01*
X001791Y024215D01*
X002205Y024353D02*
X002205Y024907D01*
X002758Y024353D01*
X002620Y024215D01*
X002343Y024215D01*
X002205Y024353D01*
X002758Y024353D02*
X002758Y024907D01*
X002620Y025046D01*
X002343Y025046D01*
X002205Y024907D01*
X001515Y024769D02*
X001238Y025046D01*
X001238Y024215D01*
X003862Y024492D02*
X004416Y024492D01*
X004416Y024630D02*
X004277Y024769D01*
X004000Y024769D01*
X003862Y024630D01*
X003862Y024492D01*
X004000Y024215D02*
X004277Y024215D01*
X004416Y024353D01*
X004416Y024630D01*
X004691Y024769D02*
X004830Y024769D01*
X005106Y024492D01*
X005106Y024215D02*
X005106Y024769D01*
X005520Y024769D02*
X005520Y024215D01*
X005382Y024215D02*
X005659Y024215D01*
X005934Y024215D02*
X005934Y025046D01*
X005659Y024769D02*
X005520Y024769D01*
X005520Y025046D02*
X005520Y025184D01*
X006211Y024492D02*
X005934Y024215D01*
X006211Y024492D02*
X006488Y024215D01*
X006488Y025046D01*
X006901Y024769D02*
X006762Y024630D01*
X006762Y024492D01*
X007316Y024492D01*
X007316Y024630D02*
X007178Y024769D01*
X006901Y024769D01*
X007316Y024630D02*
X007316Y024353D01*
X007178Y024215D01*
X006901Y024215D01*
X007591Y024215D02*
X007868Y024492D01*
X007730Y024492D02*
X008145Y024492D01*
X008145Y024215D02*
X008145Y025046D01*
X007730Y025046D01*
X007591Y024907D01*
X007591Y024630D01*
X007730Y024492D01*
D12*
X003305Y016680D02*
X001055Y016680D01*
X001055Y007680D01*
X003305Y007680D01*
X003305Y010805D01*
X003680Y010805D01*
X003680Y013555D01*
X003305Y013555D01*
X003305Y016680D01*
X003305Y007680D02*
X001055Y007680D01*
X001055Y000680D01*
X003305Y000680D01*
X003305Y002805D01*
X003680Y002805D01*
X003680Y005555D01*
X003305Y005555D01*
X003305Y007680D01*
X020055Y009280D02*
X020055Y020280D01*
X022305Y020280D01*
X022305Y016155D01*
X022680Y016155D01*
X022680Y013405D01*
X022305Y013405D01*
X022305Y009280D01*
X020055Y009280D01*
X020055Y009680D02*
X022305Y009680D01*
X022305Y006555D01*
X022680Y006555D01*
X022680Y003805D01*
X022305Y003805D01*
X022305Y000680D01*
X020055Y000680D01*
X020055Y009680D01*
D13*
X020138Y009950D02*
X020078Y010010D01*
X020078Y010250D01*
X020318Y010010D01*
X020258Y009950D01*
X020138Y009950D01*
X020318Y010010D02*
X020318Y010250D01*
X020258Y010310D01*
X020138Y010310D01*
X020078Y010250D01*
X020447Y010250D02*
X020447Y010010D01*
X020507Y009950D01*
X020687Y009950D01*
X020687Y010310D01*
X020507Y010310D01*
X020447Y010250D01*
X020815Y009890D02*
X021055Y009890D01*
X021243Y010070D02*
X021423Y010070D01*
X021423Y009950D02*
X021423Y010310D01*
X021243Y010310D01*
X021183Y010250D01*
X021183Y010130D01*
X021243Y010070D01*
X021551Y010010D02*
X021551Y010250D01*
X021612Y010310D01*
X021732Y010310D01*
X021792Y010250D01*
X021792Y010010D01*
X021732Y009950D01*
X021612Y009950D01*
X021551Y010010D01*
X021920Y010310D02*
X022160Y010310D01*
X022040Y010310D02*
X022040Y009950D01*
X021055Y020490D02*
X020815Y020490D01*
X020687Y020550D02*
X020687Y020910D01*
X020507Y020910D01*
X020447Y020850D01*
X020447Y020610D01*
X020507Y020550D01*
X020687Y020550D01*
X020318Y020610D02*
X020318Y020670D01*
X020258Y020730D01*
X020138Y020730D01*
X020078Y020670D01*
X020078Y020610D01*
X020138Y020550D01*
X020258Y020550D01*
X020318Y020610D01*
X020258Y020730D02*
X020318Y020790D01*
X020318Y020850D01*
X020258Y020910D01*
X020138Y020910D01*
X020078Y020850D01*
X020078Y020790D01*
X020138Y020730D01*
X021183Y020730D02*
X021243Y020670D01*
X021423Y020670D01*
X021423Y020550D02*
X021423Y020910D01*
X021243Y020910D01*
X021183Y020850D01*
X021183Y020730D01*
X021551Y020610D02*
X021551Y020850D01*
X021612Y020910D01*
X021732Y020910D01*
X021792Y020850D01*
X021792Y020610D01*
X021732Y020550D01*
X021612Y020550D01*
X021551Y020610D01*
X021920Y020910D02*
X022160Y020910D01*
X022040Y020910D02*
X022040Y020550D01*
X003160Y017310D02*
X003160Y016950D01*
X002980Y016950D01*
X002920Y017010D01*
X002920Y017070D01*
X002980Y017130D01*
X003160Y017130D01*
X002980Y017130D02*
X002920Y017190D01*
X002920Y017250D01*
X002980Y017310D01*
X003160Y017310D01*
X002792Y017250D02*
X002792Y017010D01*
X002732Y016950D01*
X002612Y016950D01*
X002551Y017010D01*
X002551Y017250D01*
X002612Y017310D01*
X002732Y017310D01*
X002792Y017250D01*
X002423Y017310D02*
X002183Y017310D01*
X002303Y017310D02*
X002303Y016950D01*
X002055Y016890D02*
X001815Y016890D01*
X001687Y016950D02*
X001687Y017310D01*
X001507Y017310D01*
X001447Y017250D01*
X001447Y017130D01*
X001507Y017070D01*
X001687Y017070D01*
X001567Y008310D02*
X001447Y008190D01*
X001447Y007950D01*
X001447Y008130D02*
X001687Y008130D01*
X001687Y008190D02*
X001567Y008310D01*
X001687Y008190D02*
X001687Y007950D01*
X001815Y007890D02*
X002055Y007890D01*
X002243Y008070D02*
X002423Y008070D01*
X002423Y007950D02*
X002423Y008310D01*
X002243Y008310D01*
X002183Y008250D01*
X002183Y008130D01*
X002243Y008070D01*
X002551Y008010D02*
X002551Y008250D01*
X002612Y008310D01*
X002732Y008310D01*
X002792Y008250D01*
X002792Y008010D01*
X002732Y007950D01*
X002612Y007950D01*
X002551Y008010D01*
X002920Y008310D02*
X003160Y008310D01*
X003040Y008310D02*
X003040Y007950D01*
M02*
